# xmcd
#
# Track frame offsets: 
#        150
#        19997
#        38807
#        53147
#        79265
#
# Disc length: 1438 seconds
#
# Revision: 1
# Processed by: cddbd v1.5.2PL0 Copyright (c) Steve Scherf et al.
# Submitted via: ExactAudioCopy v0.99pb4
#
DISCID=38059c05
DTITLE=Sheryl Crow - Tuesday Night Music Club (Live From Nashville) (D
DTITLE=isc 2)
DYEAR=1993
DGENRE=Rock
TTITLE0=Can't Cry Anymore
TTITLE1=Reach Around Jerk
TTITLE2=Strong Enough
TTITLE3=Leaving Las Vegas
TTITLE4=I Shall Believe
EXTD=
EXTT0=
EXTT1=
EXTT2=
EXTT3=
EXTT4=
PLAYORDER=
